<?xml version="1.0" encoding="UTF-8" standalone="no"?>
<!DOCTYPE svg PUBLIC "-//W3C//DTD SVG 1.1//EN"
 "http://www.w3.org/Graphics/SVG/1.1/DTD/svg11.dtd">
<!-- Generated by graphviz version 2.38.0 (20140413.2041)
 -->
<!-- Title: %3 Pages: 1 -->
<svg width="180pt" height="188pt"
 viewBox="0.00 0.00 180.34 188.00" xmlns="http://www.w3.org/2000/svg" xmlns:xlink="http://www.w3.org/1999/xlink">
<g id="graph0" class="graph" transform="scale(1 1) rotate(0) translate(4 184)">
<title>%3</title>
<polygon fill="white" stroke="none" points="-4,4 -4,-184 176.343,-184 176.343,4 -4,4"/>
<!-- result_a -->
<g id="node1" class="node"><title>result_a</title>
<ellipse fill="none" stroke="black" cx="85.9965" cy="-162" rx="38.1938" ry="18"/>
<text text-anchor="middle" x="85.9965" y="-158.3" font-family="Times,serif" font-size="14.00">result_a</text>
</g>
<!-- result_b -->
<g id="node2" class="node"><title>result_b</title>
<ellipse fill="none" stroke="black" cx="38.9965" cy="-90" rx="38.9931" ry="18"/>
<text text-anchor="middle" x="38.9965" y="-86.3" font-family="Times,serif" font-size="14.00">result_b</text>
</g>
<!-- result_a&#45;&gt;result_b -->
<g id="edge1" class="edge"><title>result_a&#45;&gt;result_b</title>
<path fill="none" stroke="black" d="M74.8582,-144.411C69.122,-135.868 62.0121,-125.278 55.6395,-115.787"/>
<polygon fill="black" stroke="black" points="58.5351,-113.821 50.0549,-107.47 52.7235,-117.723 58.5351,-113.821"/>
</g>
<!-- result_c -->
<g id="node3" class="node"><title>result_c</title>
<ellipse fill="none" stroke="black" cx="133.997" cy="-90" rx="38.1938" ry="18"/>
<text text-anchor="middle" x="133.997" y="-86.3" font-family="Times,serif" font-size="14.00">result_c</text>
</g>
<!-- result_a&#45;&gt;result_c -->
<g id="edge2" class="edge"><title>result_a&#45;&gt;result_c</title>
<path fill="none" stroke="black" d="M97.1294,-144.765C102.982,-136.23 110.283,-125.582 116.841,-116.019"/>
<polygon fill="black" stroke="black" points="119.822,-117.86 122.591,-107.633 114.049,-113.901 119.822,-117.86"/>
</g>
<!-- result_d -->
<g id="node4" class="node"><title>result_d</title>
<ellipse fill="none" stroke="black" cx="85.9965" cy="-18" rx="38.9931" ry="18"/>
<text text-anchor="middle" x="85.9965" y="-14.3" font-family="Times,serif" font-size="14.00">result_d</text>
</g>
<!-- result_b&#45;&gt;result_d -->
<g id="edge3" class="edge"><title>result_b&#45;&gt;result_d</title>
<path fill="none" stroke="black" d="M50.1349,-72.411C55.8711,-63.8677 62.981,-53.2785 69.3536,-43.7874"/>
<polygon fill="black" stroke="black" points="72.2695,-45.7232 74.9381,-35.4699 66.458,-41.8211 72.2695,-45.7232"/>
</g>
<!-- result_c&#45;&gt;result_d -->
<g id="edge4" class="edge"><title>result_c&#45;&gt;result_d</title>
<path fill="none" stroke="black" d="M122.864,-72.7646C117.011,-64.2301 109.71,-53.5822 103.152,-44.0191"/>
<polygon fill="black" stroke="black" points="105.944,-41.9013 97.4023,-35.6334 100.171,-45.8601 105.944,-41.9013"/>
</g>
</g>
</svg>
